<svg id="Group_84" data-name="Group 84" xmlns="http://www.w3.org/2000/svg" xmlns:xlink="http://www.w3.org/1999/xlink" width="30" height="20" viewBox="0 0 30 20">
    <defs>
      <clipPath id="clip-path">
        <rect id="Rectangle_38" data-name="Rectangle 38" width="30" height="20" fill="none"/>
      </clipPath>
    </defs>
    <g id="Group_84-2" data-name="Group 84" clip-path="url(#clip-path)">
      <path id="Path_341" data-name="Path 341" d="M27,20H3a3,3,0,0,1-3-3V3A3,3,0,0,1,3,0H27a3,3,0,0,1,3,3V17a3,3,0,0,1-3,3" fill="#f0b90b"/>
      <path id="Path_342" data-name="Path 342" d="M11.122,9.683,9.533,11.262,7.943,9.683,9.533,8.1Z" fill="#1e2026"/>
      <path id="Path_343" data-name="Path 343" d="M15,5.832l2.725,2.724,1.589-1.579L16.589,4.253,15,2.675,13.411,4.253,10.668,6.977l1.59,1.579Z" fill="#1e2026"/>
      <path id="Path_344" data-name="Path 344" d="M20.467,8.1,18.878,9.683l1.589,1.578,1.589-1.578Z" fill="#1e2026"/>
      <path id="Path_345" data-name="Path 345" d="M15,13.517l-2.725-2.706-1.607,1.578L13.393,15.1l1.589,1.578,1.59-1.578,2.742-2.707-1.589-1.578Z" fill="#1e2026"/>
      <path id="Path_346" data-name="Path 346" d="M15,11.262l1.589-1.579L15,8.1,13.411,9.683Z" fill="#1e2026"/>
    </g>
  </svg>
