<?xml version="1.0" encoding="utf-8"?>
<!-- Generator: Adobe Illustrator 27.5.0, SVG Export Plug-In . SVG Version: 6.00 Build 0)  -->
<svg version="1.1" id="Layer_1" xmlns="http://www.w3.org/2000/svg" xmlns:xlink="http://www.w3.org/1999/xlink" x="0px" y="0px"
	 viewBox="0 0 20 20" style="enable-background:new 0 0 20 20;" xml:space="preserve">
<style type="text/css">
	.st0{fill:#FFFFFF;}
</style>
<g id="图层_2_00000144296108155867594110000007847402940081800580_">
	<g id="Discord_Logos_00000149354002805333883750000005053816613999926144_">
		<g id="Discord_Logo_-_Large_-_White_00000042717033981042290860000015714988492138198164_">
			<path class="st0" d="M16.9,3.7c-1.3-0.6-2.7-1-4.1-1.3c-0.2,0.3-0.4,0.7-0.5,1.1c-1.5-0.2-3.1-0.2-4.6,0C7.6,3.1,7.4,2.8,7.2,2.4
				C5.8,2.7,4.4,3.1,3.1,3.7c-2.6,3.9-3.3,7.6-3,11.3l0,0c1.5,1.1,3.2,2,5.1,2.5c0.4-0.6,0.8-1.1,1.1-1.7c-0.6-0.2-1.2-0.5-1.7-0.8
				c0.1-0.1,0.3-0.2,0.4-0.3c3.2,1.5,6.9,1.5,10.1,0c0.1,0.1,0.3,0.2,0.4,0.3c-0.5,0.3-1.1,0.6-1.7,0.8c0.3,0.6,0.7,1.2,1.1,1.7
				c1.8-0.5,3.5-1.4,5.1-2.5l0,0C20.3,10.7,19.2,7,16.9,3.7z M6.7,12.8c-1,0-1.8-0.9-1.8-2s0.8-2,1.8-2s1.8,0.9,1.8,2
				S7.7,12.8,6.7,12.8z M13.3,12.8c-1,0-1.8-0.9-1.8-2s0.8-2,1.8-2s1.8,0.9,1.8,2C15.1,11.9,14.3,12.8,13.3,12.8z"/>
		</g>
	</g>
</g>
</svg>
