<svg xmlns="http://www.w3.org/2000/svg" viewBox="0 0 18 18">
    <path
        id="Language_Icon"
        data-name="Language Icon"
        d="M13.3,13.5c.042.024.089.046.131.07L9.9,17.1,9,18,7.5,13.5h5.8Zm.05-3.562a5.244,5.244,0,0,1-.616,1.261l.239.717a6.579,6.579,0,0,0,1-1.977h.964V9.347H12.542a6.168,6.168,0,0,0-.636-1.079l-.133.049.54,1.621Zm1.721,3.744a9.129,9.129,0,0,1-1.8-.878l.232.7h-.2c.042.024.089.046.131.07a9.213,9.213,0,0,0,1.306.617ZM16.2,4.5H10.5L9,0H1.8A1.8,1.8,0,0,0,0,1.8v9.9a1.8,1.8,0,0,0,1.8,1.8H13.5l-.232-.7-.3-.889-.239-.717-.42-1.261-.54-1.621L10.8,5.4h5.4a.9.9,0,0,1,.9.9v9.9a.9.9,0,0,1-.9.9H9.9L9,18h7.2A1.8,1.8,0,0,0,18,16.2V6.3A1.8,1.8,0,0,0,16.2,4.5Zm-3.949,8.1H1.8a.9.9,0,0,1-.9-.9V1.8A.9.9,0,0,1,1.8.9H8.351ZM6.829,7.927h-2.3L3.879,9.45H3.215L5.7,3.787,8.125,9.45H7.46ZM6.593,7.36,5.686,5.2,4.762,7.36Z"
        fill="#fff"
    />
</svg>
