<svg width="156" height="12" viewBox="0 0 156 12" fill="none" xmlns="http://www.w3.org/2000/svg">
<path d="M60.5608 11.6352H68.2782V9.77742H62.5147V6.75802H67.9447V4.90027H62.5147V2.08679H68.2805V0.229039H60.563V11.6352H60.5608ZM52.9597 0.226799H51.0057V11.6329H58.3068V9.75952H52.9597V0.226799ZM1.96112 5.92762C1.86263 2.04426 7.23891 0.358859 9.42345 3.51032L10.9141 2.17855C7.60822 -2.1077 -0.223415 0.345428 0.00488642 5.92986C-0.129409 11.6419 7.76714 14.1174 11.1581 9.36334L9.48612 8.26213C7.29935 11.5054 1.86487 9.86695 1.96112 5.92762ZM47.5879 5.63441C48.1004 4.6742 48.0758 3.42079 47.7893 2.60159C47.561 1.95026 47.1133 1.34817 46.5448 0.945282C46.218 0.714742 45.8264 0.511062 45.3742 0.379005C44.8751 0.233519 44.3872 0.195467 43.8142 0.195467H39.0086V11.6329H40.9693V7.69808L43.3665 7.69585C43.5322 7.69809 43.6933 7.69585 43.8477 7.68913L46.0994 11.6329H48.4943L45.8957 7.21462C46.7508 6.80726 47.2857 6.20069 47.5879 5.63441ZM44.2394 5.85152C44.0626 5.86943 43.8455 5.87838 43.6373 5.87838H40.9693V2.02412H43.6933C43.9216 2.02412 44.1253 2.03755 44.2797 2.04202C45.3026 2.06888 46.1218 2.92165 46.1218 3.94901C46.124 4.98084 45.2959 5.74409 44.2394 5.85152ZM21.181 4.91594H15.8696V0.229039H13.9156V11.6352H15.8696V6.75802H21.181V11.6352H23.135V0.229039H21.181V4.91594ZM30.0892 0.226799L25.4404 11.6329H27.5488L28.5068 9.21114H33.554L34.4963 11.6329H36.6697L32.0029 0.226799H30.0892ZM29.2387 7.3534C29.7132 6.14698 30.6219 3.80353 31.0293 2.78288C31.4389 3.808 32.3431 6.1425 32.8199 7.3534H29.2387ZM134.674 2.07112H138.329V11.6352H140.283V2.07112H143.938V0.229039H134.674V2.07112ZM130.432 11.6352H132.386V0.229039H130.432V11.6352ZM153.491 0.226799V4.9137H148.179V0.226799H146.225V11.6329H148.179V6.75578H153.491V11.6329H155.445V0.226799H153.491ZM77.9363 5.68142C77.3342 5.36359 76.0405 5.01218 75.0624 4.77493C74.5633 4.65406 74.1223 4.48619 73.753 4.28027C73.3747 4.06988 73.1241 3.70728 73.1106 3.35812C73.095 2.94628 73.2539 2.59935 73.5807 2.32852C73.9545 2.01964 74.4827 1.94354 74.9012 1.90997C75.0064 1.90325 75.1116 1.89877 75.2168 1.89877C75.2795 1.89877 75.3422 1.90102 75.4048 1.90325C75.8771 1.9234 76.365 2.02412 76.8552 2.20094C77.6028 2.47177 78.2989 3.094 78.3079 3.09848L78.4533 3.22829L79.7493 1.72196L79.6105 1.59885C79.0151 1.07062 78.3526 0.6655 77.6431 0.399148C76.9403 0.135035 76.139 0.000740059 75.2616 0.000740059H75.1855C74.3081 0.00745481 73.377 0.244705 72.7525 0.618493C71.6804 1.26311 71.0671 2.28376 71.1119 3.3514C71.1634 4.56901 71.8124 5.48893 73.0368 6.08654C73.8022 6.45809 74.8565 6.72445 75.6533 6.92589C75.7786 6.95722 75.895 6.98632 76.0002 7.01542C77.1305 7.31087 77.7998 7.89281 77.7931 8.571C77.7863 9.12609 77.3678 9.56926 76.9806 9.74609C76.4859 9.97215 75.942 10.0863 75.3623 10.0863C74.6147 10.0863 73.9567 9.89605 73.5359 9.73713C72.569 9.37006 71.8057 8.61129 71.799 8.60458L71.658 8.46357L70.286 9.95648L70.418 10.0841C71.0156 10.6705 71.7901 11.1562 72.7234 11.5322C73.5269 11.8545 74.3081 12 75.2571 12C75.3175 12 75.378 12 75.4407 11.9978C76.4053 11.9799 77.3006 11.7695 78.0258 11.3912C78.8808 10.9458 79.794 9.87366 79.7829 8.57324C79.7694 6.89903 78.6212 6.04402 77.9363 5.68142ZM98.0336 4.81298H95.755L94.5531 6.81845L93.2482 5.43745C93.3623 5.35688 93.4765 5.27854 93.5862 5.19796C95.9811 3.30888 94.6225 -0.370814 91.6657 0.045501C90.4459 0.150699 89.6133 0.999 89.2999 2.01517C89.1029 2.65307 89.1096 3.35811 89.3536 3.98482C89.526 4.428 89.7923 4.80178 90.1348 5.14424C90.1348 5.14424 90.0273 5.22258 89.9467 5.27406C89.3312 5.66128 88.9037 6.09326 88.5904 6.54538C87.9457 7.4765 87.8495 8.52624 88.1673 9.42825C88.4807 10.3168 89.1544 11.0935 89.9893 11.5591C91.3412 12.2596 93.472 12.2037 94.8105 10.008L96.3168 11.6128H99.0497L95.9453 8.30689L98.0336 4.81298ZM91.3591 2.03084C91.5628 1.86968 91.7776 1.79581 91.9836 1.7891C92.1895 1.79581 92.4044 1.86968 92.608 2.03084C93.528 2.83437 92.6797 3.6267 91.9836 4.19298C91.2852 3.62446 90.4392 2.83437 91.3591 2.03084ZM92.9751 9.27381C92.5386 9.73489 92.1179 9.96544 91.6657 9.97663C91.2382 9.99006 90.8309 9.83561 90.5197 9.54464C90.2086 9.25367 90.0318 8.85974 90.0184 8.43671C90.0072 8.05621 90.137 7.68242 90.381 7.38697C90.654 7.05795 91.0435 6.78264 91.5717 6.54538L93.5033 8.6001C93.3288 8.85078 93.1072 9.13504 92.9751 9.27381ZM119.236 11.6352H126.954V9.77742H121.188V6.75802H126.618V4.90027H121.188V2.08679H126.954V0.229039H119.236V11.6352ZM116.741 0.23128H114.221L108.77 5.79333V0.23128H106.79V11.6307H108.77V8.31584L110.825 6.24546L114.552 11.6307H117.012L112.271 4.78164L116.741 0.23128Z" fill="black"/>
</svg>
