<svg xmlns="http://www.w3.org/2000/svg" width="31" height="21" viewBox="0 0 31 21">
    <g id="Group_85" data-name="Group 85" transform="translate(0.5 0.5)">
      <path id="Path_347" data-name="Path 347" d="M27,20H3a3,3,0,0,1-3-3V3A3,3,0,0,1,3,0H27a3,3,0,0,1,3,3V17a3,3,0,0,1-3,3" fill="#fff" stroke="#999" stroke-width="1"/>
      <g id="Group_88" data-name="Group 88" transform="translate(-0.529 -0.5)">
        <path id="Path_348" data-name="Path 348" d="M15.529,18a7.5,7.5,0,1,0-7.5-7.5,7.482,7.482,0,0,0,7.5,7.5" fill="#2775ca"/>
        <path id="Path_349" data-name="Path 349" d="M16.954,11.108c0-1.021-.612-1.371-1.837-1.517-.875-.116-1.05-.35-1.05-.758s.291-.671.875-.671a.863.863,0,0,1,.962.613.219.219,0,0,0,.2.145h.467a.2.2,0,0,0,.2-.2V8.687a1.458,1.458,0,0,0-1.312-1.2v-.7c0-.116-.088-.2-.234-.233H14.8c-.117,0-.2.088-.234.233v.671a1.487,1.487,0,0,0-1.429,1.429c0,.963.584,1.342,1.809,1.488.816.146,1.079.321,1.079.787s-.409.788-.963.788c-.758,0-1.021-.321-1.108-.758a.213.213,0,0,0-.2-.175h-.5a.2.2,0,0,0-.2.2v.029a1.629,1.629,0,0,0,1.546,1.4v.7c0,.117.087.2.233.233h.437c.117,0,.2-.087.234-.233v-.7A1.6,1.6,0,0,0,16.954,11.108Z" transform="translate(0.497 0.51)" fill="#fff"/>
        <path id="Path_350" data-name="Path 350" d="M13.9,15.076a4.8,4.8,0,0,1,0-9.008.321.321,0,0,0,.192-.321V5.3a.243.243,0,0,0-.192-.256.19.19,0,0,0-.127.032,5.774,5.774,0,0,0,0,11,.193.193,0,0,0,.287-.129c.032-.032.032-.064.032-.127v-.45a.425.425,0,0,0-.192-.288m3.386-10A.194.194,0,0,0,17,5.2c-.033.032-.033.064-.033.127v.45a.426.426,0,0,0,.192.32A4.779,4.779,0,0,1,20,12.254a4.731,4.731,0,0,1-2.843,2.853.324.324,0,0,0-.192.321v.448a.245.245,0,0,0,.192.257.188.188,0,0,0,.128-.033,5.8,5.8,0,0,0,0-11.027Z" transform="translate(0 0)" fill="#fff"/>
      </g>
    </g>
  </svg>
